<?xml version="1.0" encoding="utf-8"?>
<!-- Generator: Adobe Illustrator 23.0.1, SVG Export Plug-In . SVG Version: 6.00 Build 0)  -->
<svg version="1.1" id="Layer_1" xmlns="http://www.w3.org/2000/svg" xmlns:xlink="http://www.w3.org/1999/xlink" x="0px" y="0px"
	 viewBox="0 0 2400 2400" style="enable-background:new 0 0 2400 2400;" xml:space="preserve">
<style type="text/css">
	.st0{fill:#244D58;}
	.st1{fill:#F0EFEF;}
	.st2{fill:#CCCCCC;}
	.st3{fill:#B3B3B3;}
	.st4{fill:none;}
	.st5{fill:#295B67;}
	.st6{fill:#9AD6D0;}
	.st7{fill:#92D3CC;}
	.st8{fill:#29B29B;}
</style>
<g>
	
		<image style="overflow:visible;opacity:0.2;" width="4795" height="4170" xlink:href="C478140A.png"  transform="matrix(0.24 0 0 0.24 724.68 652.2)">
	</image>
	<g>
		<path class="st0" d="M744.9,1326.1l207.4-522.4c11.4-28.8,37.8-49,68.6-52.5l558.4-63.9l286.1,373.6l-866.4,597L744.9,1326.1z"/>
	</g>
</g>
<g>
	
		<image style="overflow:visible;opacity:0.2;" width="5368" height="5190" xlink:href="C478140E.png"  transform="matrix(0.24 0 0 0.24 611.16 519)">
	</image>
	<g>
		<path class="st1" d="M1236.4,554.2l-598.1,458c-9.5,7.3-8.9,21.5-1.6,31.1l556.1,726.3l696.5-533.3l-507.6-663L1236.4,554.2z"/>
	</g>
</g>
<path class="st2" d="M1233.8,550.7l59.2,74.4c1.5,1.9,3,3.7,5.4,4c2.4,0.3,4.5-0.1,6.4-1.6l74.2-57.8L1233.8,550.7z"/>
<path class="st2" d="M936.2,1009.3c2.7,3.5,2,8.6-1.5,11.3l-149.2,114.3c-3.5,2.7-8.6,2-11.3-1.5l-0.6-0.7c-2.7-3.5-2-8.6,1.5-11.3
	l149.2-114.3c3.5-2.7,8.6-2,11.3,1.5L936.2,1009.3z"/>
<path class="st2" d="M961,1041.7c2.7,3.5,2,8.6-1.5,11.3l-149.2,114.3c-3.5,2.7-8.6,2-11.3-1.5l-0.6-0.7c-2.7-3.5-2-8.6,1.5-11.3
	l149.2-114.3c3.5-2.7,8.6-2,11.3,1.5L961,1041.7z"/>
<path class="st2" d="M981.7,1068.7c2.7,3.5,2,8.6-1.5,11.3l-149.2,114.3c-3.5,2.7-8.6,2-11.3-1.5l-0.6-0.7c-2.7-3.5-2-8.6,1.5-11.3
	l149.2-114.3c3.5-2.7,8.6-2,11.3,1.5L981.7,1068.7z"/>
<path class="st2" d="M1470.7,851.6c3.2,4.2,1.9,10.5-2.9,14.2l-519.9,398.1c-4.8,3.7-11.2,3.3-14.4-0.9l-1.1-1.4
	c-3.2-4.2-1.9-10.5,2.9-14.2l519.9-398.1c4.8-3.7,11.2-3.3,14.4,0.9L1470.7,851.6z"/>
<path class="st2" d="M1553.7,881.7c3.2,4.2,1.9,10.7-3.1,14.5l-584.2,447.3c-4.9,3.8-11.6,3.4-14.8-0.8l-0.7-0.9
	c-3.2-4.2-1.9-10.7,3.1-14.5L1538.2,880c4.9-3.8,11.6-3.4,14.8,0.8L1553.7,881.7z"/>
<path class="st2" d="M1601.2,943.8c3.2,4.2,1.9,10.7-3.1,14.5L1014,1405.6c-4.9,3.8-11.6,3.4-14.8-0.8l-0.7-0.9
	c-3.2-4.2-1.9-10.7,3.1-14.5l584.2-447.3c4.9-3.8,11.6-3.4,14.8,0.8L1601.2,943.8z"/>
<path class="st3" d="M1678.6,1044.9c3.8,4.9,2.8,12-2.1,15.8L1092.3,1508c-4.9,3.8-12,2.8-15.8-2.1l-0.8-1c-3.8-4.9-2.8-12,2.1-15.8
	l584.2-447.3c4.9-3.8,12-2.8,15.8,2.1L1678.6,1044.9z"/>
<path class="st3" d="M1726.2,1107c3.8,4.9,2.8,12-2.1,15.8l-584.2,447.3c-4.9,3.8-12,2.8-15.8-2.1l-0.8-1c-3.8-4.9-2.8-12,2.1-15.8
	l584.2-447.3c4.9-3.8,12-2.8,15.8,2.1L1726.2,1107z"/>
<path class="st3" d="M1773.7,1169.1c3.8,4.9,2.8,12-2.1,15.8l-584.2,447.3c-4.9,3.8-12,2.8-15.8-2.1l-0.8-1
	c-3.8-4.9-2.8-12,2.1-15.8l584.2-447.3c4.9-3.8,12-2.8,15.8,2.1L1773.7,1169.1z"/>
<polygon id="SVGID_3_" class="st4" points="1686.4,896.4 1690.8,893 1316.6,404.4 541.8,997.6 916,1486.3 916.7,1485.8 915.7,1489 
	1198.7,1457.8 1481.7,1426.4 1585.8,1161.4 1689.8,896.3 "/>
<g>
	
		<image style="overflow:visible;opacity:0.2;" width="5196" height="4869" xlink:href="C4781409.png"  transform="matrix(0.24 0 0 0.24 723.96 651)">
	</image>
	<g>
		<polygon class="st5" points="1578.4,686.2 1960.9,1185.7 1126.6,1824.5 744.1,1325 1352.5,1255.4 		"/>
	</g>
</g>
<path class="st0" d="M1126.6,1824.5l172.4-566.6c9.4-31,37.6-52.6,70-53.6l591.9-18.6L1126.6,1824.5z"/>
<circle class="st6" cx="2009.4" cy="658.4" r="29.5"/>
<circle class="st7" cx="1878.7" cy="748" r="21.6"/>
<circle class="st6" cx="384" cy="918.9" r="29.5"/>
<circle class="st7" cx="487.7" cy="983.8" r="21.6"/>
<circle class="st6" cx="1324.7" cy="1982.5" r="29.5"/>
<circle class="st7" cx="1369.2" cy="1871.4" r="21.6"/>
<path class="st8" d="M659.5,1287.3c3.2,4.2,3.6,9.2,1,11.2l-287.1,219.9c-2.6,2-7.4,0.3-10.5-3.9l-1.1-1.4c-3.2-4.2-3.6-9.2-1-11.2
	l287.1-219.9c2.6-2,7.4-0.3,10.5,3.9L659.5,1287.3z"/>
<path class="st8" d="M639.9,1411.4c3.2,4.2,4.5,8.5,3,9.6l-164,125.6c-1.5,1.2-5.3-1.3-8.5-5.4l-1.1-1.4c-3.2-4.2-4.5-8.5-3-9.6
	l164-125.6c1.5-1.2,5.3,1.3,8.5,5.4L639.9,1411.4z"/>
<path class="st8" d="M716.1,1552.6c3.2,4.2,3.3,9.4,0.2,11.8L380,1821.9c-3.1,2.4-8.2,0.9-11.4-3.2l-1.1-1.4
	c-3.2-4.2-3.3-9.4-0.2-11.8L703.7,1548c3.1-2.4,8.2-0.9,11.4,3.2L716.1,1552.6z"/>
<path class="st8" d="M809.4,1583.5c3.2,4.2,3.7,9.1,1.1,11.1l-280.1,214.5c-2.6,2-7.2,0.2-10.4-4l-1.1-1.4
	c-3.2-4.2-3.7-9.1-1.1-11.1L798,1578.2c2.6-2,7.2-0.2,10.4,4L809.4,1583.5z"/>
<path class="st8" d="M918.3,1704.4c3.2,4.2,3.3,9.4,0.2,11.8l-336.2,257.4c-3.1,2.4-8.2,0.9-11.4-3.2l-1.1-1.4
	c-3.2-4.2-3.3-9.4-0.2-11.8l336.2-257.4c3.1-2.4,8.2-0.9,11.4,3.2L918.3,1704.4z"/>
<path class="st8" d="M933.3,1810.4c3.2,4.2,4.6,8.4,3.2,9.5l-156,119.5c-1.4,1.1-5.2-1.4-8.4-5.5l-1.1-1.4c-3.2-4.2-4.6-8.4-3.2-9.5
	l156-119.5c1.4-1.1,5.2,1.4,8.4,5.5L933.3,1810.4z"/>
<path class="st8" d="M594.6,1181c3.2,4.2,4.5,8.5,3,9.6l-164,125.6c-1.5,1.2-5.3-1.3-8.5-5.4l-1.1-1.4c-3.2-4.2-4.5-8.5-3-9.6
	l164-125.6c1.5-1.2,5.3,1.3,8.5,5.4L594.6,1181z"/>
</svg>
